<svg xmlns="http://www.w3.org/2000/svg" width="260" height="65"><g fill="#FF4D48" fill-rule="nonzero"><path d="M0 43.277V13h7.569v24.6h13.246v5.677zM33.418 39.114a8.5 8.5 0 0 0 2.27-.303c.732-.202 1.451-.467 2.158-.795v-3.709h-4.542c-.782 0-1.356.17-1.722.511-.366.34-.549 1.028-.549 2.063 0 .731.19 1.286.568 1.665.379.378.984.568 1.817.568Zm-2.006 4.541c-2.195 0-3.942-.593-5.242-1.779-1.3-1.186-1.949-2.8-1.949-4.844 0-2.145.757-3.766 2.271-4.863 1.514-1.098 3.595-1.646 6.245-1.646h5.109v-2.574c0-1.06-.278-1.772-.833-2.138-.555-.366-1.375-.549-2.46-.549-1.135 0-1.974.22-2.517.662-.542.442-.927 1.256-1.154 2.441l-6.093-.946c.555-2.7 1.57-4.58 3.047-5.639 1.475-1.06 3.803-1.59 6.982-1.59 3.457 0 6.024.638 7.702 1.912 1.677 1.274 2.516 3.21 2.516 5.81v8.174c0 .984.297 1.583.89 1.798.593.214 1.432.258 2.517.132v5.071c-2.12.505-3.823.492-5.11-.038-1.286-.53-2.182-1.589-2.687-3.179h-1.135c-.807 1.01-1.924 1.893-3.35 2.65-1.425.757-3.008 1.135-4.75 1.135ZM52.227 43.277V20.569h7.57v4.163h1.135c.555-1.59 1.438-2.744 2.649-3.463 1.21-.719 2.636-1.078 4.276-1.078 1.968 0 3.45.561 4.447 1.684.997 1.123 1.495 2.706 1.495 4.75v4.238h-6.812v-2.081c0-.883-.196-1.59-.587-2.12-.39-.53-1.09-.794-2.1-.794-.858 0-1.69.195-2.498.586-.807.391-1.476 1.079-2.006 2.063v14.76h-7.569ZM86.402 39.114a8.5 8.5 0 0 0 2.27-.303c.732-.202 1.451-.467 2.158-.795v-3.709h-4.542c-.782 0-1.356.17-1.722.511-.366.34-.549 1.028-.549 2.063 0 .731.19 1.286.568 1.665.379.378.984.568 1.817.568Zm-2.006 4.541c-2.195 0-3.942-.593-5.242-1.779-1.3-1.186-1.949-2.8-1.949-4.844 0-2.145.757-3.766 2.271-4.863 1.514-1.098 3.595-1.646 6.245-1.646h5.109v-2.574c0-1.06-.278-1.772-.833-2.138-.555-.366-1.375-.549-2.46-.549-1.135 0-1.974.22-2.517.662-.542.442-.927 1.256-1.154 2.441l-6.093-.946c.555-2.7 1.57-4.58 3.047-5.639 1.475-1.06 3.803-1.59 6.982-1.59 3.457 0 6.024.638 7.702 1.912 1.677 1.274 2.516 3.21 2.516 5.81v8.174c0 .984.297 1.583.89 1.798.593.214 1.432.258 2.516.132v5.071c-2.119.505-3.822.492-5.109-.038-1.286-.53-2.182-1.589-2.687-3.179h-1.135c-.807 1.01-1.924 1.893-3.35 2.65-1.425.757-3.008 1.135-4.75 1.135ZM120.425 43.277h-10.029l-6.547-22.708h7.115l4.617 16.841 4.579-16.841h6.812zM153.426 37.902c-1.009 2.196-2.32 3.703-3.935 4.523-1.615.82-4.088 1.23-7.418 1.23-3.129 0-5.765-.719-7.91-2.157-2.145-1.438-3.217-3.62-3.217-6.547v-6.018c0-2.725.972-4.863 2.914-6.415 1.943-1.551 4.643-2.327 8.1-2.327 3.43 0 6.111.776 8.041 2.327 1.93 1.552 2.896 3.715 2.896 6.49v4.429h-14.382v2.043c0 1.06.284 1.899.852 2.517.567.618 1.545.927 2.933.927 1.085 0 2.025-.17 2.82-.51.794-.341 1.494-1.054 2.1-2.139l6.206 1.627Zm-14.91-9.726v1.476h6.812v-1.135c0-1.413-.228-2.397-.682-2.952-.454-.555-1.362-.833-2.725-.833-1.362 0-2.27.259-2.724.776-.455.517-.682 1.407-.682 2.668ZM158.195 43.277v-5.299h7.191v-19.68h-7.191V13h14.76v24.978h6.812v5.299zM194.943 43.655c-1.715 0-3.097-.372-4.144-1.116-1.047-.745-1.57-1.773-1.57-3.085v-3.292c0-1.338.523-2.385 1.57-3.142 1.047-.757 2.429-1.135 4.144-1.135 1.69 0 3.053.378 4.088 1.135 1.034.757 1.551 1.804 1.551 3.142v3.292c0 1.312-.53 2.34-1.59 3.085-1.059.744-2.409 1.116-4.049 1.116ZM233.508 44.26c0 2.07-.788 3.747-2.365 5.034-1.577 1.287-3.716 1.93-6.415 1.93h-6.51c-3.002 0-5.241-.523-6.717-1.57-1.476-1.047-2.214-2.29-2.214-3.728 0-1.287.403-2.315 1.21-3.085.808-.77 1.792-1.217 2.953-1.343v-.757c-.934-.303-1.722-.744-2.366-1.325-.643-.58-.965-1.476-.965-2.687 0-1.413.505-2.554 1.514-3.425 1.01-.87 2.233-1.394 3.671-1.57v-.757c-1.312-.328-2.327-.858-3.046-1.59-.72-.731-1.079-1.665-1.079-2.8v-.076c0-1.943.852-3.419 2.555-4.428 1.703-1.01 3.765-1.514 6.187-1.514h13.587v4.163l-6.207-.681v.757c.934.252 1.703.725 2.309 1.42.605.693.908 1.481.908 2.364v.152c0 1.867-.858 3.299-2.573 4.295-1.716.997-3.823 1.495-6.32 1.495h-3.331c-.833 0-1.489.139-1.968.417-.48.277-.719.731-.719 1.362 0 .63.24 1.085.72 1.362.478.278 1.134.417 1.967.417h6.66c2.625 0 4.706.51 6.245 1.532 1.54 1.022 2.309 2.568 2.309 4.637ZM220.83 31.129c1.009 0 1.734-.214 2.176-.643.441-.43.662-.997.662-1.703v-1.893c0-.63-.22-1.16-.662-1.59-.442-.428-1.167-.643-2.176-.643-1.01 0-1.735.215-2.176.644a2.128 2.128 0 0 0-.663 1.59v1.892c0 .706.215 1.274.644 1.703.429.429 1.16.643 2.195.643Zm-2.536 15.933h6.358c.807 0 1.476-.113 2.006-.34.53-.228.795-.757.795-1.59 0-.833-.265-1.356-.795-1.57-.53-.215-1.199-.322-2.006-.322h-8.25v1.74c0 .657.157 1.168.473 1.533.315.366.788.55 1.419.55ZM260 44.26c0 2.07-.788 3.747-2.365 5.034-1.577 1.287-3.716 1.93-6.415 1.93h-6.51c-3.002 0-5.241-.523-6.717-1.57-1.476-1.047-2.214-2.29-2.214-3.728 0-1.287.403-2.315 1.21-3.085.808-.77 1.792-1.217 2.953-1.343v-.757c-.934-.303-1.722-.744-2.366-1.325-.643-.58-.965-1.476-.965-2.687 0-1.413.505-2.554 1.514-3.425 1.01-.87 2.233-1.394 3.671-1.57v-.757c-1.312-.328-2.327-.858-3.046-1.59-.72-.731-1.079-1.665-1.079-2.8v-.076c0-1.943.852-3.419 2.555-4.428 1.703-1.01 3.765-1.514 6.187-1.514H260v4.163l-6.207-.681v.757c.934.252 1.703.725 2.309 1.42.605.693.908 1.481.908 2.364v.152c0 1.867-.858 3.299-2.573 4.295-1.716.997-3.823 1.495-6.32 1.495h-3.331c-.833 0-1.489.139-1.968.417-.48.277-.719.731-.719 1.362 0 .63.24 1.085.719 1.362.48.278 1.135.417 1.968.417h6.66c2.625 0 4.706.51 6.245 1.532 1.54 1.022 2.309 2.568 2.309 4.637Zm-12.678-13.132c1.009 0 1.734-.214 2.176-.643.441-.43.662-.997.662-1.703v-1.893c0-.63-.22-1.16-.662-1.59-.442-.428-1.167-.643-2.176-.643-1.01 0-1.735.215-2.176.644a2.128 2.128 0 0 0-.663 1.59v1.892c0 .706.215 1.274.644 1.703.429.429 1.16.643 2.195.643Zm-2.536 15.933h6.358c.807 0 1.476-.113 2.006-.34.53-.228.795-.757.795-1.59 0-.833-.265-1.356-.795-1.57-.53-.215-1.199-.322-2.006-.322h-8.25v1.74c0 .657.157 1.168.473 1.533.315.366.788.55 1.419.55Z"/></g></svg>
